<svg xmlns="http://www.w3.org/2000/svg" version="1.1" xmlns:xlink="http://www.w3.org/1999/xlink" width="512" height="512" x="0" y="0" viewBox="0 0 512 512" style="enable-background: new 0 0 512 512" xml:space="preserve" class=""><g><path d="M83.5 197c-12.6-7.9-25.6-15.4-38.9-22.5l38.9-26.2zM219.1 344.1l-183 123.4c-.7-1.8-1.1-3.7-1.1-5.7V192c72.6 38.7 134.4 89.8 184.1 152.1zM319.5 74.8h-127l55.2-37.2c5-3.4 11.5-3.4 16.6 0zM266.9 203.4c2.3 2.2 3.5 5.2 3.7 8.3v2.7c-.4 4-2.2 8.2-5.5 11.5-3.4 3.4-7.7 5.4-12.1 5.6-4.1.2-7.8-1.1-10.4-3.8-5.7-5.7-4.9-15.8 1.8-22.5 3.7-3.7 8.4-5.6 12.9-5.6 3.6 0 7 1.3 9.6 3.8z" fill="#000000" opacity="1" data-original="#000000" class=""></path><path d="M403.5 94.8h-295c-2.7 0-5 2.2-5 5v110.3c50.4 34.4 94.7 75.5 132.2 122.8.4-.3 1.1-.7 1.5-1 11.5-7.4 26.2-7.4 37.6 0 .4.2 1.1.7 1.5 1 37.5-47.3 81.8-88.4 132.2-122.8V99.8c0-2.8-2.3-5-5-5zm-73 132.9c-1.2 7.3-4.9 13.6-10.2 18-5.3 4.5-12.1 7.1-19.5 7.1-9.4 0-17.8-4.3-23.3-11-6.6 5.9-14.9 9.3-23.5 9.7h-1.8c-9.1 0-17.4-3.4-23.7-9.7-6.4-6.4-9.6-15-9.6-23.7 0-9.6 3.8-19.5 11.4-27 11.7-11.7 28.7-14.5 42-8.1 1.8-2.8 4.9-4.6 8.4-4.6 5.5 0 10 4.5 10 10v34.3c0 5.6 4.5 10.1 10.1 10.1 4.9 0 9.2-3.6 10-8.3.4-2.7.7-5.4.7-8.1.4-30.4-24-55.6-54.4-56.2-15.2-.3-29.5 5.5-40.3 16.2s-16.5 25-16.2 40.3c.5 29.8 25.3 54.2 55.1 54.4 7.6 0 14.9-1.4 21.9-4.3 5.1-2.2 11 .2 13.1 5.3s-.2 10.9-5.3 13.1c-9.3 3.9-19.2 5.9-29.4 5.9h-.4c-40.6-.2-74.3-33.4-75-74-.4-20.7 7.4-40.2 22.1-54.8 14.6-14.6 34.1-22.5 54.8-22.1 41.3.8 74.5 35.1 74 76.4-.1 3.7-.4 7.4-1 11.1zM273.1 354.9 454.3 477H57.7l181.4-122.3s8.7-5.8 8.8-5.9c4.9-3.2 11.3-3.2 16.2 0 .1.1 8.9 6 9 6.1-.1-.1-.1-.1 0 0zM467.4 174.5c-13.3 7.1-26.3 14.6-38.9 22.5v-48.8zM477 192v269.7c0 2-.4 4-1.1 5.7l-183-123.3C342.6 281.8 404.4 230.7 477 192z" fill="#000000" opacity="1" data-original="#000000" class=""></path></g></svg>