<svg xmlns="http://www.w3.org/2000/svg" version="1.1" xmlns:xlink="http://www.w3.org/1999/xlink" width="512" height="512" x="0" y="0" viewBox="0 0 500 500" style="enable-background:new 0 0 512 512" xml:space="preserve" class=""><g><path fill="#f7a63b" d="M399.755 329.894v54.213l-155.048 88.96V293.398l60.979 90.479z" opacity="1" data-original="#f7a63b" class=""></path><path fill="#ffb859" d="M244.707 293.398v179.669l-155.093-88.96v-53.431l97.382 55.824z" opacity="1" data-original="#ffb859" class=""></path><path fill="#ffc16e" d="m462.62 293.214-155.047 88.96-61.025-90.432 152.654-87.58 2.347-1.334.092-.046 1.519 2.255z" opacity="1" data-original="#ffc16e" class=""></path><path fill="#ffcc8a" d="m307.573 382.174-1.887 1.703-60.979-90.479 1.841-1.656z" opacity="1" data-original="#ffcc8a"></path><path fill="#ffc16e" d="m474.126 136.419-72.485 66.363-.092.046-2.347 1.334-154.495-88.637 74.371-68.02z" opacity="1" data-original="#ffc16e" class=""></path><path fill="#f7a63b" d="m475 139.318-71.84 65.719-1.519-2.255 72.485-66.363z" opacity="1" data-original="#f7a63b" class=""></path><path fill="#ffcc8a" d="m89.292 203.978-1.702-.966-.967 1.565L25 117.688l1.749-1.841z" opacity="1" data-original="#ffcc8a"></path><path fill="#ffb859" d="M244.707 115.525 89.891 204.347l-.599-.369-62.543-88.131 155.093-88.914z" opacity="1" data-original="#ffb859" class=""></path><path fill="#ffc16e" d="m242.683 291.972-57.712 93.102-155.047-88.96 56.699-91.537.967-1.565 1.702.966.599.369z" opacity="1" data-original="#ffc16e" class=""></path><path fill="#ffcc8a" d="M244.707 115.525 89.891 204.347l152.792 87.625 2.025 1.427 1.841-1.657 152.654-87.579zm0 170.786-142.713-81.826 142.713-81.827 142.667 81.827z" opacity="1" data-original="#ffcc8a"></path><path fill="#ffb859" d="m387.375 204.485-142.668 81.826V122.658z" opacity="1" data-original="#ffb859" class=""></path><path fill="#f7a63b" d="M244.707 122.658v163.653l-142.713-81.826zM244.707 293.398 186.996 386.5l-2.025-1.426 57.712-93.102z" opacity="1" data-original="#f7a63b" class=""></path><path fill="#eb9e38" d="m307.573 382.174-1.887 1.703 154.819-88.847 2.115-1.816z" opacity="1" data-original="#eb9e38"></path></g></svg>