<svg xmlns="http://www.w3.org/2000/svg" version="1.1" xmlns:xlink="http://www.w3.org/1999/xlink" width="512" height="512" x="0" y="0" viewBox="0 0 64 64" style="enable-background:new 0 0 512 512" xml:space="preserve" class=""><g><circle cx="32" cy="32" r="30" fill="#e6ecff" opacity="1" data-original="#e6ecff" class=""></circle><path fill="#0050b2" d="M32 62A30.16 30.16 0 0 1 8.369 50.457 29.654 29.654 0 0 1 32 39a29.68 29.68 0 0 1 23.62 11.474A30.164 30.164 0 0 1 32 62z" opacity="1" data-original="#4294ff" class=""></path><circle cx="32" cy="22" r="11" fill="#0050b2" opacity="1" data-original="#4294ff" class=""></circle><g fill="#232328"><path d="M32 1a31 31 0 1 0 31 31A31.035 31.035 0 0 0 32 1zm0 60a29 29 0 1 1 29-29 29.033 29.033 0 0 1-29 29z" fill="#232328" opacity="1" data-original="#232328" class=""></path><path d="M53.587 46.753a30.997 30.997 0 0 0-43.174 0 1 1 0 0 0 1.394 1.433 28.997 28.997 0 0 1 40.386 0 1 1 0 0 0 1.394-1.433zM32 34a12 12 0 1 0-12-12 12.013 12.013 0 0 0 12 12zm0-22a10 10 0 1 1-10 10 10.011 10.011 0 0 1 10-10z" fill="#232328" opacity="1" data-original="#232328" class=""></path></g></g></svg>